Coordinates
version=1
nRows=43
nColumns=12
inDegrees=yes

Units are S.I. units (second, meters, Newtons, ...)
Angles are in degrees

endheader
time	SC_y	SC_z	SC_x	AC_y	AC_z	AC_x	GH_y	GH_z	GH_yy	EL_x	PS_y
       0.0              -45.14          36.46          4.558           54.2         -16.24           9.77          87.42          21.23           76.9          10.76          144.0
   0.02884              -45.15          36.46           4.57           54.2         -16.24          9.766          87.38          21.22          76.91          10.77          144.0
   0.05767              -45.15          36.46          4.582           54.2         -16.24          9.762          87.34          21.22          76.92          10.79          144.0
   0.08651              -45.15          36.46          4.595          54.19         -16.24          9.758           87.3          21.21          76.93          10.81          143.9
    0.1153              -45.15          36.46          4.609          54.19         -16.24          9.754          87.25          21.21          76.94          10.83          143.9
    0.1442              -45.15          36.46          4.624          54.19         -16.23           9.75           87.2           21.2          76.95          10.86          143.9
     0.173              -45.15          36.45           4.64          54.18         -16.23          9.745          87.15          21.19          76.96          10.88          143.9
    0.2018              -45.15          36.45          4.656          54.18         -16.23           9.74          87.09          21.19          76.98          10.91          143.8
    0.2307              -45.16          36.45          4.675          54.18         -16.23          9.734          87.03          21.18          76.99          10.94          143.8
    0.2595              -45.16          36.45          4.694          54.17         -16.22          9.728          86.96          21.17           77.0          10.97          143.8
    0.2884              -45.16          36.44          4.715          54.17         -16.22          9.722          86.89          21.17          77.02           11.0          143.8
    0.3172              -45.16          36.44          4.737          54.16         -16.22          9.715          86.82          21.16          77.04          11.03          143.7
     0.346              -45.16          36.44          4.761          54.16         -16.21          9.708          86.74          21.15          77.06          11.07          143.7
    0.3749              -45.17          36.44          4.788          54.15         -16.21            9.7          86.65          21.14          77.08          11.11          143.7
    0.4037              -45.17          36.43          4.816          54.14         -16.21          9.691          86.55          21.13           77.1          11.15          143.6
    0.4325              -45.17          36.43          4.846          54.14          -16.2          9.682          86.45          21.11          77.12           11.2          143.6
    0.4614              -45.18          36.42           4.88          54.13          -16.2          9.672          86.34           21.1          77.15          11.25          143.5
    0.4902              -45.18          36.42          4.916          54.12         -16.19          9.661          86.21          21.09          77.17          11.31          143.5
     0.519              -45.18          36.42          4.956          54.11         -16.19          9.649          86.08          21.07           77.2          11.37          143.4
    0.5479              -45.19          36.41          4.999           54.1         -16.18          9.636          85.93          21.06          77.24          11.44          143.3
    0.5767              -45.19           36.4          5.047          54.09         -16.17          9.621          85.77          21.04          77.27          11.51          143.3
    0.6055               -45.2           36.4          5.099          54.08         -16.16          9.605           85.6          21.02          77.31          11.59          143.2
    0.6344               -45.2          36.39          5.157          54.06         -16.16          9.588           85.4           21.0          77.36          11.68          143.1
    0.6632              -45.21          36.38          5.221          54.05         -16.15          9.568          85.18          20.97          77.41          11.78          143.0
     0.692              -45.22          36.37          5.293          54.03         -16.14          9.547          84.94          20.94          77.46          11.89          142.9
    0.7209              -45.23          36.36          5.372          54.01         -16.12          9.523          84.67          20.91          77.52          12.02          142.8
    0.7497              -45.23          36.35          5.462          53.99         -16.11          9.496          84.37          20.88          77.59          12.15          142.7
    0.7786              -45.24          36.34          5.562          53.97          -16.1          9.465          84.03          20.84          77.67          12.31          142.5
    0.8074              -45.26          36.33          5.675          53.94         -16.08          9.431          83.65           20.8          77.75          12.48          142.3
    0.8362              -45.27          36.31          5.804          53.91         -16.06          9.392          83.22          20.75          77.85          12.68          142.1
    0.8651              -45.28          36.29          5.951          53.88         -16.04          9.347          82.72          20.69          77.96          12.91          141.9
    0.8939               -45.3          36.27           6.12          53.84         -16.02          9.296          82.15          20.63          78.09          13.17          141.7
    0.9227              -45.32          36.25          6.314          53.79         -15.99          9.237           81.5          20.55          78.24          13.47          141.4
    0.9516              -45.34          36.22           6.54          53.74         -15.95          9.169          80.73          20.46          78.42          13.82          141.1
    0.9804              -45.37          36.19          6.805          53.68         -15.92          9.088          79.84          20.36          78.62          14.23          140.7
     1.009               -45.4          36.15          7.117           53.6         -15.87          8.994          78.79          20.24          78.86          14.71          140.2
     1.038              -45.44          36.11          7.488          53.52         -15.82          8.881          77.54           20.1          79.14          15.29          139.6
     1.067              -45.48          36.05          7.932          53.41         -15.75          8.746          76.04          19.93          79.48          15.98          139.0
     1.096              -45.53          35.99           8.47          53.28         -15.67          8.583          74.22          19.72          79.89          16.81          138.2
     1.125               -45.6          35.91          9.127          53.13         -15.58          8.384          72.01          19.47          80.39          17.82          137.2
     1.153              -45.68          35.81          9.938          52.94         -15.46          8.138          69.27          19.16          81.01          19.08          136.0
     1.182              -45.78          35.68          10.95           52.7         -15.31          7.832          65.86          18.77          81.78          20.64          134.5
     1.211              -45.91          35.53          12.22           52.4         -15.13          7.446          61.56          18.28          82.76          22.61          132.6
